<?xml version="1.0" encoding="iso-8859-1"?>
<!-- Generator: Adobe Illustrator 17.1.0, SVG Export Plug-In . SVG Version: 6.00 Build 0)  -->
<!DOCTYPE svg PUBLIC "-//W3C//DTD SVG 1.1//EN" "http://www.w3.org/Graphics/SVG/1.1/DTD/svg11.dtd">
<svg version="1.1" id="Capa_1" xmlns="http://www.w3.org/2000/svg" xmlns:xlink="http://www.w3.org/1999/xlink" x="0px" y="0px"
	 viewBox="0 0 259 259" style="enable-background:new 0 0 259 259;" xml:space="preserve">
<path d="M239,18.775H20c-11.028,0-20,8.972-20,20v116v21.5c0,11.028,8.972,20,20,20h73.048l-5.468,28.95H71.333
	c-4.142,0-7.5,3.358-7.5,7.5s3.358,7.5,7.5,7.5h22.463h71.407h22.464c4.143,0,7.5-3.358,7.5-7.5s-3.357-7.5-7.5-7.5H171.42
	l-5.467-28.95H239c11.028,0,20-8.972,20-20v-21.5v-116C259,27.747,250.028,18.775,239,18.775z M20,33.775h219c2.757,0,5,2.243,5,5
	v108.5H15v-108.5C15,36.018,17.243,33.775,20,33.775z M129.5,49.955c-24.399,0-44.25,19.851-44.25,44.25s19.851,44.25,44.25,44.25
	s44.25-19.851,44.25-44.25S153.899,49.955,129.5,49.955z M154.443,87.118l-21.222,26.088c-1.479,1.817-3.639,2.768-5.823,2.768
	c-1.548,0-3.108-0.478-4.446-1.464l-17.028-12.554c-3.334-2.458-4.044-7.153-1.586-10.487c2.458-3.333,7.153-4.044,10.487-1.586
	l11.272,8.31l16.709-20.541c2.613-3.212,7.337-3.7,10.551-1.085C156.571,79.181,157.057,83.905,154.443,87.118z"/>
<g>
</g>
<g>
</g>
<g>
</g>
<g>
</g>
<g>
</g>
<g>
</g>
<g>
</g>
<g>
</g>
<g>
</g>
<g>
</g>
<g>
</g>
<g>
</g>
<g>
</g>
<g>
</g>
<g>
</g>
</svg>
